# xmcd
#
# Track frame offsets: 
#        150
#        16875
#        46772
#        67172
#        85997
#        103247
#        124922
#        140200
#        165796
#        184246
#        207346
#
# Disc length: 2981 seconds
#
# Revision: 0
# Processed by: cddbd v1.5.2PL0 Copyright (c) Steve Scherf et al.
# Submitted via: ExactAudioCopyFreeDBPlugin 1.0
#
DISCID=9c0ba30b
DTITLE=John Wright - Red Skies
DYEAR=2016
DGENRE=Country
TTITLE0=Mot
TTITLE1=Bumps
TTITLE2=Red Skies
TTITLE3=Kingston
TTITLE4=Way Back Home
TTITLE5=Christmas Away Blues
TTITLE6=Time You Know
TTITLE7=Last Orders
TTITLE8=Spaces Of Uncertainty
TTITLE9=Innocence
TTITLE10=Pike
EXTD=
EXTT0=
EXTT1=
EXTT2=
EXTT3=
EXTT4=
EXTT5=
EXTT6=
EXTT7=
EXTT8=
EXTT9=
EXTT10=
PLAYORDER=
